<svg width="140" height="46" viewBox="0 0 140 46" fill="none" xmlns="http://www.w3.org/2000/svg">
<path fill-rule="evenodd" clip-rule="evenodd" d="M20.5801 10.46C21.9398 10.46 23.0069 11.5611 22.956 12.9207C22.9091 14.2804 21.771 15.3815 20.4084 15.3815C19.0487 15.3815 17.9855 14.2804 18.0325 12.9207C18.0804 11.5611 19.2214 10.46 20.5801 10.46Z" fill="white"/>
<path fill-rule="evenodd" clip-rule="evenodd" d="M35.6792 14.1392C37.0408 14.1392 38.103 15.2423 38.0571 16.6019C38.0082 17.9626 36.8691 19.0657 35.5085 19.0657C34.1458 19.0657 33.0856 17.9626 33.1325 16.6019C33.1785 15.2423 34.3205 14.1392 35.6792 14.1392Z" fill="white"/>
<path fill-rule="evenodd" clip-rule="evenodd" d="M22.039 1.93555C23.224 1.93555 24.1514 2.8939 24.1094 4.08087C24.0685 5.26484 23.0742 6.22619 21.8893 6.22619C20.7073 6.22619 19.7789 5.26484 19.8218 4.08087C19.8617 2.8939 20.857 1.93555 22.039 1.93555Z" fill="white"/>
<path fill-rule="evenodd" clip-rule="evenodd" d="M13.3469 14.1392C14.7075 14.1392 15.7737 15.2423 15.7238 16.6019C15.6769 17.9626 14.5378 19.0657 13.1762 19.0657C11.8175 19.0657 10.7523 17.9626 10.7993 16.6019C10.8482 15.2423 11.9882 14.1392 13.3469 14.1392Z" fill="white"/>
<path fill-rule="evenodd" clip-rule="evenodd" d="M42.6721 6.84473C44.3882 6.84473 45.7329 8.23834 45.676 9.95739C45.6141 11.6784 44.1716 13.071 42.4535 13.071C40.7325 13.071 39.3908 11.6784 39.4497 9.95739C39.5095 8.23834 40.9521 6.84473 42.6721 6.84473Z" fill="white"/>
<path fill-rule="evenodd" clip-rule="evenodd" d="M28.7356 6.84473C30.4547 6.84473 31.7984 8.23834 31.7375 9.95739C31.6786 11.6784 30.239 13.071 28.517 13.071C26.7989 13.071 25.4543 11.6784 25.5132 9.95739C25.5741 8.23834 27.0136 6.84473 28.7356 6.84473Z" fill="white"/>
<path fill-rule="evenodd" clip-rule="evenodd" d="M6.11371 11.0962C7.47238 11.0962 8.53755 12.1983 8.49063 13.56C8.44371 14.9186 7.30167 16.0207 5.944 16.0207C4.58233 16.0207 3.51916 14.9186 3.56807 13.56C3.614 12.1983 4.75504 11.0962 6.11371 11.0962Z" fill="white"/>
<path fill-rule="evenodd" clip-rule="evenodd" d="M35.7022 0C37.4232 0 38.7669 1.39161 38.706 3.11266C38.6471 4.83171 37.2056 6.22632 35.4875 6.22632C33.7655 6.22632 32.4208 4.83171 32.4817 3.11266C32.5406 1.39161 33.9831 0 35.7022 0Z" fill="white"/>
<mask id="mask0_657_2409" style="mask-type:luminance" maskUnits="userSpaceOnUse" x="0" y="15" width="136" height="31">
<path fill-rule="evenodd" clip-rule="evenodd" d="M0 15.5366H135.847V45.9998H0V15.5366Z" fill="white"/>
</mask>
<g mask="url(#mask0_657_2409)">
<path fill-rule="evenodd" clip-rule="evenodd" d="M127.871 28.3296C126.723 28.078 125.618 27.9503 124.556 27.9503C123.172 27.9503 121.66 28.2987 120.397 29.5615C119.312 30.6466 118.553 32.4186 118.553 35.7579C118.553 39.8479 119.798 42.3076 122.709 42.3076C126.011 42.3076 127.871 38.3734 127.871 34.7925V28.3296ZM124.218 15.875C126.16 15.6364 129.259 15.4467 132.361 15.5815V42.097C133.514 42.2727 134.611 42.3955 135.847 42.5163V45.2835C133.696 45.5301 130.737 45.7208 128.083 45.584C128.071 44.0826 128.205 42.5293 128.379 41.6757H128.294C127.073 44.427 124.626 46.0003 121.515 46.0003C115.943 46.0003 113.851 41.6358 113.851 36.1771C113.851 30.2034 116.962 24.3814 124.731 24.3814C125.519 24.3814 126.943 24.4353 127.871 24.5511V19.0655C127.042 18.9028 124.929 18.7101 124.217 18.6452L124.218 15.875ZM102.98 24.2985C96.8948 24.2985 93.4527 29.0015 93.4527 35.2967C93.4527 42.6421 97.0176 46.0003 103.524 46.0003C106.086 46.0003 108.648 45.5381 110.746 44.6566L110.325 41.0907C108.607 41.9283 106.381 42.4334 104.24 42.4334C100.084 42.4334 97.943 40.2492 98.0688 35.4214H111.376C111.458 34.6248 111.502 33.912 111.502 33.323C111.502 28.3715 108.94 24.2985 102.98 24.2985ZM107.01 32.2748H98.1526C98.53 29.4607 100.294 27.6168 102.812 27.6148C105.457 27.6148 107.094 29.4207 107.01 32.2748ZM82.3767 24.3554C86.1722 24.3554 88.5102 26.4389 88.5102 31.032V42.3216C89.4596 42.4005 91.1467 42.6221 91.9942 42.8667V45.6389H84.0179V32.205C84.0179 29.85 83.4499 28.092 81.027 28.092C78.0831 28.092 75.7032 31.5062 75.7032 35.5652V45.6389H71.2149V32.205C71.2149 29.85 70.6458 28.092 68.224 28.092C65.28 28.092 62.8991 31.5062 62.8991 35.5652V45.6389H58.4108V28.2607C57.5822 28.098 55.4689 27.9063 54.7571 27.8414V25.0712C56.8725 24.7727 60.3735 24.6779 62.7334 24.7767C62.7394 25.6123 62.6136 27.8025 62.392 28.8487L62.4469 28.8747C63.8715 25.8159 66.5429 24.3554 69.6765 24.3554C73.3023 24.3554 74.9405 26.6814 75.3128 28.7968C76.7114 25.9497 79.1802 24.3554 82.3767 24.3554ZM51.7931 24.9294V30.7634H49.0249C48.7723 29.8131 48.6066 28.8048 48.5188 27.7386C47.821 27.6009 47.1092 27.533 46.3804 27.533C43.9576 27.533 42.56 28.4654 42.56 30.2603C42.56 30.9351 42.7876 31.4073 43.126 31.7467C44.9479 33.5676 49.1527 33.328 51.5625 35.7379C52.4041 36.5795 52.8463 37.4839 52.8463 39.0323C52.8463 43.2281 49.0918 46.0003 43.694 46.0003C42.0648 46.0003 39.8706 45.7767 38.5309 45.4113V39.3267H41.3451C41.5667 40.36 41.7214 41.3832 41.8043 42.3885C42.2864 42.4793 43.2738 42.6011 44.1153 42.6011C46.4124 42.6011 48.354 41.6388 48.354 39.7041C48.354 38.9913 48.0875 38.5481 47.8 38.2606C46.063 36.5236 41.8133 36.7122 39.4054 34.3044C38.5299 33.4289 38.0687 32.4645 38.0687 30.7634C38.0687 26.7383 41.5108 24.2985 46.7149 24.2985C48.3061 24.2985 50.1829 24.5621 51.7931 24.9294ZM19.0962 24.7767C19.1022 25.6123 18.9764 27.8025 18.7548 28.8487L18.8087 28.8747C20.2343 25.8159 22.9057 24.3554 26.0393 24.3554C29.9187 24.3554 32.2756 26.4389 32.2756 31.032V42.3216C33.225 42.4005 34.9121 42.6221 35.7596 42.8667V45.6389H27.7833V32.205C27.7833 29.6553 27.1664 28.092 24.6886 28.092C21.6628 28.092 19.2629 31.3993 19.2629 35.5652V45.6389H14.7736V28.2607C13.9451 28.098 11.8317 27.9063 11.1199 27.8414V25.0712C13.2353 24.7727 16.7363 24.6779 19.0962 24.7767ZM8.18796 19.0655V45.6389H3.61081V22.3738C2.2751 22.247 1.12507 22.1043 0 21.8357V19.0655H8.18796Z" fill="white"/>
</g>
<path fill-rule="evenodd" clip-rule="evenodd" d="M134.437 17.8696V17.8566C134.437 16.5938 135.462 15.5366 136.764 15.5366C138.065 15.5366 139.077 16.5808 139.077 17.8437V17.8566C139.077 19.1195 138.052 20.1777 136.751 20.1777C135.45 20.1777 134.437 19.1325 134.437 17.8696ZM138.867 17.8566V17.8437C138.867 16.6837 137.962 15.7353 136.764 15.7353C135.559 15.7353 134.649 16.6966 134.649 17.8566V17.8696C134.649 19.0296 135.552 19.978 136.751 19.978C137.956 19.978 138.867 19.0167 138.867 17.8566ZM135.848 16.6008H136.911C137.212 16.6008 137.462 16.6966 137.617 16.8504C137.732 16.9592 137.808 17.1199 137.808 17.3116V17.3256C137.808 17.7089 137.553 17.9405 137.193 18.0234L137.93 18.9777H137.495L136.808 18.0813H136.796H136.2V18.9777H135.848V16.6008ZM136.879 17.7668C137.212 17.7668 137.443 17.6131 137.443 17.3445V17.3305C137.443 17.081 137.238 16.9212 136.899 16.9212H136.2V17.7668H136.879Z" fill="white"/>
</svg>
